
        <svg xmlns="http://www.w3.org/2000/svg" xmlns:xlink="http://www.w3.org/1999/xlink" version="1.1" width="3147.783251231527" 
        height="1034.4827586206898" viewBox="0 0 3147.783251231527 1034.4827586206898">
			
			<g transform="scale(7.389162561576355) translate(10, 10)">
				<defs id="SvgjsDefs13575"><linearGradient id="SvgjsLinearGradient13584"><stop id="SvgjsStop13585" stop-color="#b98947" offset="0"></stop><stop id="SvgjsStop13586" stop-color="#faf0a1" offset="1"></stop></linearGradient></defs><g id="SvgjsG13576" featureKey="symbolFeature-0" transform="matrix(0.2775398864465379,0,0,0.2775398864465379,0,18.996215934863493)" fill="url(#SvgjsLinearGradient13584)"><defs xmlns="http://www.w3.org/2000/svg"></defs><g xmlns="http://www.w3.org/2000/svg"><path class="fil0" d="M127 86c-6,0 -6,8 0,8 5,0 5,-8 0,-8z" style="fill: url(#SvgjsLinearGradient13584);"></path><path class="fil0" d="M99 172c0,42 -25,118 -77,94 25,-10 46,-36 55,-83 9,-48 26,-100 56,-113 -13,9 -35,68 -34,102z" style="fill: url(#SvgjsLinearGradient13584);"></path><path class="fil0" d="M255 96c0,3 -1,7 -2,10 -11,-15 -33,-28 -59,-34 -26,-6 -51,-3 -67,6 11,-14 34,-23 61,-23 37,0 67,18 67,41z" style="fill: url(#SvgjsLinearGradient13584);"></path><path class="fil0" d="M140 237c77,0 139,23 139,52 0,3 -1,6 -3,9l-273 0c-2,-3 -3,-6 -3,-10 0,-28 63,-51 140,-51z" style="fill: url(#SvgjsLinearGradient13584);"></path><path class="fil0" d="M235 149c-2,3 -4,6 -7,9 -4,-19 -18,-39 -40,-55 -22,-15 -46,-22 -64,-20 15,-9 40,-8 65,2 34,15 54,43 46,64z" style="fill: url(#SvgjsLinearGradient13584);"></path><path class="fil0" d="M245 28c1,3 2,7 3,11 -17,-9 -42,-10 -68,-2 -26,7 -46,22 -56,37 3,-17 19,-37 42,-49 33,-18 68,-17 79,3z" style="fill: url(#SvgjsLinearGradient13584);"></path><path class="fil0" d="M38 6c-2,2 -4,4 -5,7 16,-1 36,5 55,18 18,13 30,30 33,46 3,-15 -4,-35 -19,-52 -21,-23 -50,-32 -64,-19z" style="fill: url(#SvgjsLinearGradient13584);"></path><path class="fil0" d="M13 46c-1,3 -2,6 -2,9 14,-8 35,-10 58,-4 21,5 39,16 48,29 -3,-14 -17,-30 -37,-40 -29,-14 -58,-11 -67,6z" style="fill: url(#SvgjsLinearGradient13584);"></path><path class="fil0" d="M130 93c-5,0 -5,8 0,8 6,0 6,-8 0,-8z" style="fill: url(#SvgjsLinearGradient13584);"></path><path class="fil0" d="M123 93c-6,0 -6,8 0,8 5,0 5,-8 0,-8z" style="fill: url(#SvgjsLinearGradient13584);"></path></g></g><g id="SvgjsG13577" featureKey="textGroupContainer" transform="matrix(1,0,0,1,405,0)" fill="#ffffff"><rect xmlns="http://www.w3.org/2000/svg" y="0" height="1" width="1" opacity="0"></rect><rect xmlns="http://www.w3.org/2000/svg" y="0" x="-308" width="3" height="120"></rect></g><g id="SvgjsG13578" featureKey="nameFeature-0" transform="matrix(1.0373207231231807,0,0,1.0373207231231807,112.63490902827367,17.96707921606465)" fill="#ffffff"><path d="M2.28 26 c0 -8.08 6.36 -14.4 14.36 -14.4 c3.36 0 6.56 1.12 9.4 3.28 l-1.8 2.8 c-2.36 -1.8 -4.8 -2.68 -7.6 -2.68 c-6.04 0 -10.76 4.84 -10.76 11 s4.76 11 10.76 11 c3.04 0 5.64 -0.96 7.6 -2.84 l1.84 2.76 c-2.44 2.2 -5.88 3.48 -9.44 3.48 c-8 0 -14.36 -6.36 -14.36 -14.4 z M49.68 40 l-2.44 -5.68 l-12.48 0 l-2.44 5.68 l-3.84 0 l12.32 -28.4 l0.4 0 l12.32 28.4 l-3.84 0 z M36.2 30.96 l9.6 0 l-4.8 -11.08 z M61.120000000000005 36.56 l11.84 0 l-0.24 3.44 l-15.2 0 l0 -28 l3.6 0 l0 24.56 z M77.32000000000001 40 l0 -28 l3.6 0 l0 28 l-3.6 0 z M97.28 12 c9.28 0 14.4 5.68 14.4 14 s-5.12 14 -14.4 14 l-9.6 0 l0 -28 l9.6 0 z M97.48 36.56 c6.8 0 10.6 -4.24 10.6 -10.56 c0 -6.36 -3.8 -10.56 -10.6 -10.56 l-6.2 0 l0 21.12 l6.2 0 z M130.60000000000002 40.4 c-8 0 -14.36 -6.4 -14.36 -14.4 s6.36 -14.4 14.36 -14.4 s14.36 6.4 14.36 14.4 s-6.36 14.4 -14.36 14.4 z M130.60000000000002 36.96 c6.08 0 10.64 -4.76 10.64 -10.96 s-4.56 -10.96 -10.64 -10.96 c-6.12 0 -10.68 4.76 -10.68 10.96 s4.56 10.96 10.68 10.96 z M161.92000000000002 12 l3.92 0 l8.48 20.48 l8.52 -20.48 l3.92 0 l-12.2 28.4 l-0.44 0 z M191.16000000000003 40 l0 -28 l3.6 0 l0 28 l-3.6 0 z M219.92000000000002 40 l-2.44 -5.68 l-12.48 0 l-2.44 5.68 l-3.84 0 l12.32 -28.4 l0.4 0 l12.32 28.4 l-3.84 0 z M206.44 30.96 l9.6 0 l-4.8 -11.08 z M232.8 40.4 c-3.2 0 -6.12 -1.8 -7.76 -3.88 l2.48 -2.36 c1.28 1.48 3.24 2.8 5.28 2.8 c3.2 0 5.08 -2 5.08 -6.08 l0 -18.88 l3.56 0 l0 19.32 c0 5.76 -3.2 9.08 -8.64 9.08 z M264.8 36.56 l0.24 3.44 l-17.04 0 l0 -28 l16.24 0 l0.28 3.44 l-12.92 0 l0 6.84 l8.76 0 l0 3.44 l-8.76 0 l0 10.84 l13.2 0 z"></path></g><g id="SvgjsG13579" featureKey="sloganFeature-0" transform="matrix(0.6671836973797892,0,0,0.6671836973797892,114.79984492259986,70.13033506421799)" fill="#ffffff"><path d="M3 16.4 l-1.2 3.6 l-1.5 0 l0 -0.6 l4.9 -13.4 l1.7 0 l4.9 13.4 l0 0.6 l-1.5 0 l-1.2 -3.6 l-6.1 0 z M8.6 15.1 l-2.5 -7.3 l-0.1 0 l-2.5 7.3 l5.1 0 z M26.567500000000003 20 l-6.2 0 c-2.1 0 -3.5 -1.4 -3.5 -3.3 l0 -7.4 c0 -1.9 1.4 -3.3 3.5 -3.3 l5.8 0 l0 0.9 l-0.4 0.4 l-5.4 0 c-1.1 0 -2 0.9 -2 2 l0 7.4 c0 1.1 0.9 2 2 2 l4.7 0 l0 -6.3 l1.5 0 l0 7.6 z M33.335 20 l0 -14 l9.1 0 l0 0.9 l-0.4 0.4 l-7.2 0 l0 4.9 l5.7 0 l0 1.3 l-5.7 0 l0 5.2 l7.6 0 l0 1.3 l-9.1 0 z M56.4025 20 l-6.8 -11.5 l-0.1 0 l0.2 2.6 l0 8.9 l-1.5 0 l0 -14 l1.6 0 l6.8 11.5 l0.1 0 l-0.2 -2.6 l0 -8.9 l1.5 0 l0 14 l-1.6 0 z M74.07000000000001 18.7 l0 1.3 l-5.8 0 c-2.1 0 -3.5 -1.4 -3.5 -3.3 l0 -7.4 c0 -1.9 1.4 -3.3 3.5 -3.3 l5.8 0 l0 0.9 l-0.4 0.4 l-5.4 0 c-1.1 0 -2 0.9 -2 2 l0 7.4 c0 1.1 0.9 2 2 2 l5.8 0 z M81.4375 20 l-1.5 0 l0 -14 l1.5 0 l0 14 z M89.605 16.4 l-1.2 3.6 l-1.5 0 l0 -0.6 l4.9 -13.4 l1.7 0 l4.9 13.4 l0 0.6 l-1.5 0 l-1.2 -3.6 l-6.1 0 z M95.205 15.1 l-2.5 -7.3 l-0.1 0 l-2.5 7.3 l5.1 0 z M111.84 20 l0 -14 l6.4 0 c2.1 0 3.5 1.4 3.5 3.3 l0 7.4 c0 1.9 -1.4 3.3 -3.5 3.3 l-6.4 0 z M113.34 7.300000000000001 l0 11.4 l4.9 0 c1.1 0 2 -0.9 2 -2 l0 -7.4 c0 -1.1 -0.9 -2 -2 -2 l-4.9 0 z M128.5075 20 l0 -14 l9.1 0 l0 0.9 l-0.4 0.4 l-7.2 0 l0 4.9 l5.7 0 l0 1.3 l-5.7 0 l0 5.2 l7.6 0 l0 1.3 l-9.1 0 z M155.14249999999998 7.300000000000001 l0 12.7 l-1.5 0 l0 -12.7 l-4.4 0 l0 -1.3 l10.3 0 l0 0.9 l-0.4 0.4 l-4 0 z M171.41 20.2 l-3 0 c-2.1 0 -3.5 -1.4 -3.5 -3.3 l0 -10.9 l1.5 0 l0 10.9 c0 1.1 0.9 2 2 2 l3 0 c1.1 0 2 -0.9 2 -2 l0 -10.9 l1.5 0 l0 10.9 c0 1.9 -1.4 3.3 -3.5 3.3 z M183.5775 20 l-1.5 0 l0 -14 l6.2 0 c2.1 0 3.5 1.4 3.5 3.3 l0 1.9 c0 2.8 -2.7 3.2 -2.7 3.2 l3.1 5 l0 0.6 l-1.5 0 l-3.1 -5.5 l-4 0 l0 5.5 z M188.27749999999997 7.300000000000001 l-4.7 0 l0 5.9 l4.7 0 c1.1 0 2 -0.9 2 -2 l0 -1.9 c0 -1.1 -0.9 -2 -2 -2 z M199.84499999999997 20 l-1.5 0 l0 -14 l1.5 0 l0 14 z M206.11249999999995 9.9 l0 -0.6 c0 -1.9 1.4 -3.3 3.5 -3.3 l5.5 0 l0 0.9 l-0.4 0.4 l-5.1 0 c-1.1 0 -2 0.9 -2 2 l0 0.6 c0 1.1 0.6 1.68 1.6 1.9 l3.7 0.8 c1.4 0.3 2.5 1.4 2.5 3.2 l0 0.9 c0 1.9 -1.4 3.3 -3.5 3.3 l-6 0 l0 -1.3 l6 0 c1.1 0 2 -0.9 2 -2 l0 -0.9 c0 -1.1 -0.6 -1.68 -1.6 -1.9 l-3.7 -0.8 c-1.4 -0.3 -2.5 -1.4 -2.5 -3.2 z  M229.27999999999997 18.1 l-1.5 0 l-4.1 -9.8 l-0.1 0 l-1.4 11.7 l-1.5 0 l0 -0.6 l1.8 -13.4 l1.8 0 l4.2 10.1 l0.1 0 l4.2 -10.1 l1.8 0 l1.8 13.4 l0 0.6 l-1.5 0 l-1.4 -11.7 l-0.1 0 z M242.34749999999997 16.9 l0 -7.8 c0 -1.9 1.4 -3.3 3.5 -3.3 l3.5 0 c2.1 0 3.5 1.4 3.5 3.3 l0 7.8 c0 1.9 -1.4 3.3 -3.5 3.3 l-3.5 0 c-2.1 0 -3.5 -1.4 -3.5 -3.3 z M251.34749999999997 16.9 l0 -7.8 c0 -1.1 -0.9 -2 -2 -2 l-3.5 0 c-1.1 0 -2 0.9 -2 2 l0 7.8 c0 1.1 0.9 2 2 2 l3.5 0 c1.1 0 2 -0.9 2 -2 z"></path></g>
			</g>
		</svg>
	