<svg width="1200" height="1200" xmlns="http://www.w3.org/2000/svg" xmlns:xlink="http://www.w3.org/1999/xlink" version="1.1"><g transform="scale(3.6243269823482547) translate(26.047977023654525, 16.541163391330176)">            <linearGradient id="SvgjsLinearGradient13584"><stop id="SvgjsStop13585" stop-color="#b98947" offset="0"/><stop id="SvgjsStop13586" stop-color="#faf0a1" offset="1"/></linearGradient>            <g fill="url(#SvgjsLinearGradient13584)"><linearGradient id="SvgjsLinearGradient13584"><stop id="SvgjsStop13585" stop-color="#b98947" offset="0"/><stop id="SvgjsStop13586" stop-color="#faf0a1" offset="1"/></linearGradient><defs xmlns="http://www.w3.org/2000/svg"/><g xmlns="http://www.w3.org/2000/svg"><path class="fil0" d="M127 86c-6,0 -6,8 0,8 5,0 5,-8 0,-8z" style="fill: url(#SvgjsLinearGradient13584);"/><path class="fil0" d="M99 172c0,42 -25,118 -77,94 25,-10 46,-36 55,-83 9,-48 26,-100 56,-113 -13,9 -35,68 -34,102z" style="fill: url(#SvgjsLinearGradient13584);"/><path class="fil0" d="M255 96c0,3 -1,7 -2,10 -11,-15 -33,-28 -59,-34 -26,-6 -51,-3 -67,6 11,-14 34,-23 61,-23 37,0 67,18 67,41z" style="fill: url(#SvgjsLinearGradient13584);"/><path class="fil0" d="M140 237c77,0 139,23 139,52 0,3 -1,6 -3,9l-273 0c-2,-3 -3,-6 -3,-10 0,-28 63,-51 140,-51z" style="fill: url(#SvgjsLinearGradient13584);"/><path class="fil0" d="M235 149c-2,3 -4,6 -7,9 -4,-19 -18,-39 -40,-55 -22,-15 -46,-22 -64,-20 15,-9 40,-8 65,2 34,15 54,43 46,64z" style="fill: url(#SvgjsLinearGradient13584);"/><path class="fil0" d="M245 28c1,3 2,7 3,11 -17,-9 -42,-10 -68,-2 -26,7 -46,22 -56,37 3,-17 19,-37 42,-49 33,-18 68,-17 79,3z" style="fill: url(#SvgjsLinearGradient13584);"/><path class="fil0" d="M38 6c-2,2 -4,4 -5,7 16,-1 36,5 55,18 18,13 30,30 33,46 3,-15 -4,-35 -19,-52 -21,-23 -50,-32 -64,-19z" style="fill: url(#SvgjsLinearGradient13584);"/><path class="fil0" d="M13 46c-1,3 -2,6 -2,9 14,-8 35,-10 58,-4 21,5 39,16 48,29 -3,-14 -17,-30 -37,-40 -29,-14 -58,-11 -67,6z" style="fill: url(#SvgjsLinearGradient13584);"/><path class="fil0" d="M130 93c-5,0 -5,8 0,8 6,0 6,-8 0,-8z" style="fill: url(#SvgjsLinearGradient13584);"/><path class="fil0" d="M123 93c-6,0 -6,8 0,8 5,0 5,-8 0,-8z" style="fill: url(#SvgjsLinearGradient13584);"/></g></g>        </g></svg>